<svg width="33" height="33" viewBox="0 0 33 33" fill="none" xmlns="http://www.w3.org/2000/svg">
    <rect x="0.5" y="0.5" width="32" height="32" rx="8.74213" fill="white" stroke="#DEE2E6"/>
    <path d="M13.7713 20.0816L23.296 10.449C23.5919 10.1497 23.9686 10 24.426 10C24.8834 10 25.2601 10.1497 25.5561 10.449C25.852 10.7483 26 11.1293 26 11.5918C26 12.0544 25.852 12.4354 25.5561 12.7347L14.9013 23.5102C14.5785 23.8367 14.2018 24 13.7713 24C13.3408 24 12.9641 23.8367 12.6413 23.5102L8.44395 19.2653C8.14798 18.966 8 18.585 8 18.1224C8 17.6599 8.14798 17.2789 8.44395 16.9796C8.73991 16.6803 9.11659 16.5306 9.57399 16.5306C10.0314 16.5306 10.4081 16.6803 10.704 16.9796L13.7713 20.0816Z" fill="#CED4DA"/>
</svg>
