<svg width="50" height="50" viewBox="0 0 50 50" fill="none" xmlns="http://www.w3.org/2000/svg">
    <path d="M25.0001 48.4375C20.3646 48.4376 15.8332 47.063 11.9789 44.4876C8.12458 41.9123 5.12052 38.2519 3.34659 33.9692C1.57265 29.6866 1.10851 24.974 2.01286 20.4276C2.91721 15.8812 5.14942 11.705 8.42723 8.4272C12.8226 4.03181 18.7841 1.5625 25.0001 1.5625C31.2161 1.5625 37.1775 4.03181 41.5729 8.4272C45.9683 12.8226 48.4376 18.784 48.4376 25.0001C48.4376 31.2161 45.9683 37.1775 41.5729 41.5729C39.4016 43.7561 36.8188 45.4869 33.9741 46.6653C31.1294 47.8436 28.0792 48.446 25.0001 48.4375ZM25.0001 4.68755C13.7998 4.68755 4.68758 13.7998 4.68758 25.0001C4.68758 36.2003 13.7998 45.3125 25.0001 45.3125C36.2004 45.3125 45.3126 36.2003 45.3126 25.0001C45.3126 13.7998 36.2004 4.68755 25.0001 4.68755Z" fill="#495057"/>
    <path d="M27.8021 37.0426L15.7598 25.0003L27.8021 12.958L30.0117 15.1676L20.1792 25.0003L30.0117 34.833L27.8021 37.0426Z" fill="#495057"/>
</svg>
