<svg width="50" height="50" viewBox="0 0 50 50" fill="none" xmlns="http://www.w3.org/2000/svg">
    <path d="M24.9999 48.4375C29.6354 48.4376 34.1668 47.063 38.0211 44.4876C41.8754 41.9123 44.8795 38.2519 46.6534 33.9692C48.4273 29.6866 48.8915 24.974 47.9871 20.4276C47.0828 15.8812 44.8506 11.705 41.5728 8.4272C37.1774 4.03181 31.2159 1.5625 24.9999 1.5625C18.7839 1.5625 12.8225 4.03181 8.42706 8.4272C4.03167 12.8226 1.56236 18.784 1.56236 25.0001C1.56236 31.2161 4.03167 37.1775 8.42706 41.5729C10.5984 43.7561 13.1812 45.4869 16.0259 46.6653C18.8706 47.8436 21.9208 48.446 24.9999 48.4375ZM24.9999 4.68755C36.2002 4.68755 45.3124 13.7998 45.3124 25.0001C45.3124 36.2003 36.2002 45.3125 24.9999 45.3125C13.7996 45.3125 4.68741 36.2003 4.68741 25.0001C4.68741 13.7998 13.7996 4.68755 24.9999 4.68755Z" fill="#495057"/> 
    <path d="M22.1979 37.0426L34.2402 25.0003L22.1979 12.958L19.9883 15.1676L29.8208 25.0003L19.9883 34.833L22.1979 37.0426Z" fill="#495057"/>
</svg>
